<?xml version="1.0" encoding="utf-8"?>
<!-- Generator: Adobe Illustrator 24.1.2, SVG Export Plug-In . SVG Version: 6.00 Build 0)  -->
<svg version="1.1" id="Layer_1" xmlns="http://www.w3.org/2000/svg" xmlns:xlink="http://www.w3.org/1999/xlink" x="0px" y="0px"
	 viewBox="0 0 468 155" style="enable-background:new 0 0 468 155;" xml:space="preserve">
<g>
	<g>
		<path d="M73.6,106.8l0,0.5h23.8l0-0.4c-3.5-0.2-5.6-1.8-9.4-11.4c0,0-22.1-55-29.4-72.6h-0.8L38,77.4c-9.7,27.2-12.7,29.5-18,29.5
			l0,0.3h25.4l0-0.5C29.8,107,33.9,95,39,80.6l28.7,0c0.3,0,0.6,0.1,1,0.2c1.2,0.3,3.3,1,4.8,3.7c0.1,0.2,0.2,0.3,0.2,0.5l3.1,7.3
			C81,102.3,79.2,106.7,73.6,106.8z M67.2,79.3H39.3l15.2-42.1l15.2,37.9C70.3,76.7,69.5,79.2,67.2,79.3z"/>
		<path d="M97.7,107.5H73.3l0.1-1l0.2,0c2.1,0,3.6-0.7,4.5-2c1.5-2.2,0.9-6.3-1.6-12.2l-3.1-7.3c-0.1-0.2-0.1-0.3-0.2-0.5
			c-1.1-1.9-2.6-3-4.6-3.5c-0.3-0.1-0.6-0.1-1-0.1l-28.5,0c-3.3,9.3-6.3,18-3.1,22.4c1.6,2.2,4.7,3.3,9.4,3.2l0.2,0l0.1,1H19.8
			l0-0.8H20c4.8,0,7.7-1.3,17.7-29.4l19.8-54.7h1.2l0.1,0.2c7.2,17.4,29.2,72,29.4,72.6c3.7,9.4,5.8,11,9.2,11.2l0.2,0L97.7,107.5z
			 M74.5,107h22.2c-3.2-0.4-5.3-2.5-8.9-11.4c-0.2-0.5-22-54.8-29.3-72.4h-0.5L38.2,77.5c-8.3,23.4-11.7,28.5-16,29.5h21.6
			c-4-0.2-6.6-1.3-8.1-3.4C32.3,99,35.4,90,38.7,80.5l0.1-0.2l0.2,0l28.7,0c0.4,0,0.7,0.1,1.1,0.2c2.2,0.5,3.8,1.8,5,3.8
			c0.1,0.2,0.2,0.4,0.3,0.5l3.1,7.3c2.6,6,3.1,10.3,1.5,12.7C77.7,106.1,76.3,106.8,74.5,107z M67.2,79.5H39l0.1-0.3l15.4-42.7
			L69.9,75c0.4,1,0.2,2.2-0.4,3.2C69.1,79,68.2,79.5,67.2,79.5L67.2,79.5z M39.7,79h27.6c1-0.1,1.6-0.7,2-1.1
			c0.5-0.8,0.6-1.9,0.3-2.7L54.5,37.9L39.7,79z"/>
	</g>
	<g>
		<path d="M170.4,81.2l-0.5,0c-1.1,24.7-16.4,24.8-35.7,24.7h-4.3V34.7c0-8.6,2.5-11.4,7.7-11.4v-0.5h-23.7v0.5
			c5.2,0,6.6,3.3,6.6,10.6v59.6c0,8.1-0.5,13.2-5.6,13.2l0,0.5h55.6V81.2z"/>
		<path d="M170.7,107.5h-56.1l0-1h0.3c5,0,5.4-5.1,5.4-12.9V34c0-7.7-1.7-10.4-6.3-10.4h-0.2v-1h24.2v1h-0.2
			c-4.5,0-7.4,1.9-7.4,11.1v70.9h4.1c19.2,0.1,34.4,0.2,35.5-24.4l0-0.2l1,0V107.5z M115.1,107h55.1V82
			c-1.4,24.4-17.4,24.3-35.9,24.2h-4.6V34.7c0-8.1,2.2-11.5,7.7-11.6v0l-23.2,0c5.5,0.1,6.6,4.3,6.6,10.9v59.6
			C120.7,101.3,120.3,106.8,115.1,107L115.1,107z"/>
	</g>
	<g>
		<path d="M187.2,106.7l0,0.5h56.6V82.9h-0.6c-1.2,23.8-17.9,23-33.9,23h-6.6l0-40.6l10.1,0c4.6,0,15.7,0.1,16.1,12h0.5V52.1h-0.5
			c-0.3,9.6-7.7,11.4-13,11.8h-13.1l-0.1-39.7h8.3c14.6,0,30.3,0.2,30.9,19.7h0.5v-21h-55v0.5c5.3,0,6.1,2.9,6.1,10.4v60.6
			C193.3,102.5,192.3,106.7,187.2,106.7z"/>
		<path d="M244,107.5H187l0-1h0.2c4.9,0,5.9-4.2,5.9-12.1V33.8c0-7.5-0.9-10.1-5.9-10.1H187v-1h55.5v21.5h-1l0-0.2
			c-0.6-19.4-16.6-19.4-30.7-19.4h-8l0.1,39.2h12.9c8.4-0.5,12.5-4.3,12.8-11.5l0-0.2h1v25.7h-1l0-0.2
			c-0.4-11.7-11.6-11.7-15.8-11.7l-9.8,0l0,40.1l7.9,0c15.2,0,31,0.1,32.1-22.8l0-0.2h1.1V107.5z M187.5,107h56.1V83.1h-0.1
			c-1.3,23.1-17.2,23.1-32.6,23l-8.4,0l0-41.1l10.3,0c4.3,0,15.6,0,16.3,11.7V52.6c-0.4,7.1-4.8,11-13.2,11.5l-13.4,0l0-0.2l-0.1-40
			h8.5c14.1,0,30.1,0,31.1,19.1V23.1h-54.5v0c5.3,0.1,6.1,3.2,6.1,10.6v60.6C193.6,102.2,192.6,106.8,187.5,107L187.5,107z"/>
	</g>
	<g>
		<path d="M276.6,90.8V71h1.1c23.8,0,39.3-2.2,39.3-24c0-21.9-15.5-24.2-39.3-24.2h-17.4v0.7c6.5,0,7.3,1.9,7.3,10.6v57.2
			c0,12.9-1.7,15.3-7.9,15.3v0.6h27.7v-0.6C278.6,106.6,276.6,105.7,276.6,90.8z M276.6,24.1h1.1c15.2,0,29.5-0.5,29.5,23
			c0,22.6-13.3,22.6-29.5,22.6h-1.1V24.1z"/>
		<path d="M287.6,107.5h-28.2v-1.1h0.2c5.9,0,7.7-2,7.7-15.1V34.1c0-8.9-1-10.4-7.1-10.4h-0.2v-1.2h17.6c12.4,0,22,0.7,28.7,3.9
			c7.4,3.6,10.9,10.1,10.9,20.6c0,22.5-16.4,24.2-39.6,24.2h-0.8v19.5c0,14.9,2.2,15.5,10.5,15.5h0.2V107.5z M260,107h27.2v-0.1
			c-8.9,0-10.8-1.5-10.8-16v-20h1.3c22.9,0,39.1-1.7,39.1-23.7c0-22.2-16.2-24-39.1-24h-17.1v0.2c6.6,0.1,7.3,2.3,7.3,10.9v57.2
			c0,12.5-1.5,15.5-7.9,15.6V107z M277.7,70h-1.3V23.8l2.2,0c7.5,0,14.6,0,20,2.9c6,3.3,8.8,9.8,8.8,20.4
			C307.4,70,293.6,70,277.7,70z M276.9,69.5h0.8c16.3,0,29.2,0,29.2-22.4c0-10.4-2.7-16.7-8.6-19.9c-5.2-2.8-12.3-2.8-19.8-2.8
			l-1.7,0V69.5z"/>
	</g>
	<g>
		<path d="M414.7,68.2c-1.2,0-2.1,0.9-2.1,2.1c0,1.1,0.9,2.1,2.1,2.1c1.1,0,2.1-1,2.1-2.1C416.7,69.1,415.8,68.2,414.7,68.2z"/>
		<path d="M414.7,72.7c-1.3,0-2.4-1.1-2.4-2.4c0-1.3,1-2.3,2.4-2.3c1.3,0,2.3,1,2.3,2.3C417,71.6,415.9,72.7,414.7,72.7z
			 M414.7,68.5c-1.1,0-1.9,0.8-1.9,1.8c0,1,0.9,1.9,1.9,1.9c1,0,1.8-0.9,1.8-1.9C416.5,69.3,415.7,68.5,414.7,68.5z"/>
	</g>
	<g>
		<path d="M416.7,32h25.8c3.4,0,4.4,1,4.4,3.1h0.5V23.4h-0.5c0,2.1-1,3.1-4.4,3.1h-25.8c-3.1,0-3.7-0.9-3.7-3.1h-0.5V35h0.5
			C413,32.9,413.6,32,416.7,32z"/>
		<path d="M447.7,35.3h-1V35c0-1.7-0.7-2.8-4.2-2.8h-25.8c-2.9,0-3.4,0.8-3.4,2.8v0.2h-1V23.2h1v0.2c0,2,0.5,2.9,3.4,2.9h25.8
			c3.5,0,4.2-1.1,4.2-2.9v-0.2h1V35.3z M447.1,34.8L447.1,34.8l0.1-11.1h-0.1c-0.1,2.2-1.5,3.1-4.7,3.1h-25.8c-3.2,0-3.9-1-3.9-3.1
			v11c0.1-2,0.8-3,3.9-3h25.8C445.7,31.7,447,32.6,447.1,34.8z"/>
	</g>
	<g>
		<path d="M354,106.6c-6.2,0-7.6-3-7.6-15.9l0.2-56.1c0-7.3,1.4-10.6,6.6-10.6v-0.5h-23.7v0.5c5.2,0,7.7,2.7,7.7,11.4l0,55.3
			c0,14.9-2,16-10.8,16v0.6H354V106.6z"/>
		<path d="M354.2,107.5h-28.1v-1.1h0.2c8.8,0,10.5-1.3,10.5-15.8l0-55.3c0-9.2-3-11.1-7.4-11.1h-0.2v-1h24.2v1h-0.2
			c-4.7,0-6.3,2.7-6.3,10.4l-0.2,56.1c0,12.9,1.3,15.7,7.4,15.7h0.2V107.5z M326.6,107h27.1v-0.1c-6.2-0.1-7.6-3.2-7.6-16.2
			l0.2-56.1c0-6.6,1.1-10.8,6.6-10.9v0l-23.2,0c5.4,0.1,7.7,3.5,7.7,11.6l0,55.3c0,14.7-1.9,16.3-10.8,16.3V107z"/>
	</g>
	<g>
		<path d="M371.1,106.6v0.6l27.7-0.1v-0.6c-8.7,0-10.8-1.4-10.8-16.3l0-55.3c0-8.6,2.5-11.4,7.7-11.4v-0.5H372v0.5
			c5.2,0,6.6,3.3,6.6,10.6l0.1,30.4h-29.1v1.5h29.1l0.1,24.2C378.8,103.3,377.3,106.6,371.1,106.6z"/>
		<path d="M370.8,107.5v-1.1h0.2c6,0,7.4-3.1,7.4-16l-0.1-24h-29.1v-2h29.1l-0.1-30.1c0-7.7-1.7-10.4-6.3-10.4h-0.2v-1H396v1h-0.2
			c-4.5,0-7.4,1.9-7.4,11.1l0,55.3c0,14.7,1.9,16,10.6,16h0.2v1.1L370.8,107.5z M371.3,106.8v0.1l27.2-0.1v-0.1
			c-4.5,0-7-0.5-8.6-2.7c-1.6-2.2-2.2-5.9-2.2-13.9l0-55.3c0-8.1,2.2-11.5,7.7-11.6v0l-23.2,0c5.5,0.1,6.6,4.3,6.6,10.9l0.1,30.6
			h-29.1v1h29.1l0.1,24.5C379,102.6,377.9,106.7,371.3,106.8z"/>
	</g>
	<g>
		<path d="M446.7,39.9c0,2.1-1.7,2.3-5.1,2.3h-23.8c-3,0-4.1-0.6-4.1-2.7h-0.5v11.2h0.5c0-2.1,0.8-3.2,4.4-3.2h28.7v1.8
			c0,0.1,0,1.9,0,4.8h0v4.8h-4.1c-0.4,0-0.8,0-1.2,0h-15.7c-3.6,0-4.2-0.3-4.2-3H421v8.6c0,9.9,0.9,16.3,10,16.3
			c9,0,9.9-6.4,9.9-16.3V64h0.2c2.2,0,3.6,0.1,4.5,0.4c0.6,0.2,1,0.7,1,1.3c0,12.4,0,27.3,0,27.6c0,7.2-0.7,13-10.3,13.4v0.5h11.6
			l0.1-13.9V68.5V55.6V39.9H446.7z M440.4,64.4c0,6.7,0,10.8-9.4,10.8c-9.7,0-9.5-4.5-9.5-10.8V64h18.9V64.4z"/>
		<path d="M448.2,107.5h-12.1v-1l0.2,0c9.3-0.4,10-6,10-13.2l0-27.6c0-0.5-0.3-1-0.8-1.1c-0.9-0.3-2.2-0.4-4.4-0.4v0.2
			c0,9.7-0.7,16.5-10.2,16.5c-9.5,0-10.3-7.2-10.3-16.5v-8.8h1v0.2c0,2.5,0.4,2.8,3.9,2.8h15.7c0.4,0,0.8,0,1.2,0h3.8l0-4.5
			c0-2.8,0-4.7,0-4.8v-1.5H418c-3.5,0-4.2,1-4.2,2.9v0.2h-1V39.2h1v0.2c0,1.9,0.9,2.5,3.9,2.5h23.8c3.6,0,4.9-0.3,4.9-2.1v-0.2h1.8
			v53.7L448.2,107.5z M436.6,107h11.1l0.1-13.6V40.1h-0.8c-0.1,2.2-2.1,2.3-5.3,2.3h-23.8c-2.7,0-4.3-0.4-4.4-2.7h0v10.7
			c0.1-2.3,1.4-3.2,4.7-3.2h28.9v2c0,0.1,0,1.8,0,4.5l0,0.2v5h-4.3c-0.4,0-0.8,0-1.2,0h-15.7c-3.4,0-4.3-0.3-4.4-2.9v7.6h19.4v0.7
			c0,6.7,0,11.1-9.6,11.1c-4.5,0-7.2-1-8.5-3c-0.8-1.2-1.1-2.7-1.2-4.4c0.3,7.4,1.8,12.4,9.7,12.4c9,0,9.7-6.6,9.7-16v-0.7h0.5
			c2.3,0,3.7,0.1,4.6,0.4c0.7,0.2,1.1,0.9,1.1,1.6l0,27.6C446.9,100.5,446.1,106.4,436.6,107L436.6,107z M421.8,64.2v0.6
			c0,3,0,5.6,1.1,7.4c1.2,1.9,3.8,2.8,8.1,2.8c9.1,0,9.1-3.7,9.1-10.6v-0.2H421.8z"/>
	</g>
	<polygon points="168.8,126.2 167.9,126.2 167.9,138.2 175.7,138.2 175.7,137.3 168.8,137.3 	"/>
	<rect x="181" y="126.2" width="0.9" height="12"/>
	<polygon points="188.4,138.2 189.3,138.2 189.3,133.1 195.4,133.1 195.4,132.3 189.3,132.3 189.3,127.1 196.3,127.1 196.3,126.2 
		188.4,126.2 	"/>
	<polygon points="202,138.2 210.2,138.2 210.2,137.3 202.9,137.3 202.9,132.7 209.1,132.7 209.1,131.9 202.9,131.9 202.9,127.1 
		210.2,127.1 210.2,126.2 202,126.2 	"/>
	<path d="M219.7,131.8c-1.9-0.6-3.6-1.2-3.6-2.7c0-1.3,1.2-2.2,3.3-2.2c2.2,0,3.6,1,3.6,2.3v0.1h0.9v-0.1c0-1.8-1.8-3.1-4.5-3.1
		c-2.6,0-4.2,1.3-4.2,3.1c0,2.2,2.3,2.9,4.3,3.5c2,0.6,3.7,1.2,3.7,2.7c0,1.3-1.2,2.2-3.4,2.2c-2.3,0-3.8-1-3.8-2.3v-0.1h-0.9v0.1
		c0,1.8,1.9,3.1,4.6,3.1c2.7,0,4.4-1.2,4.4-3.1C224.1,133.1,221.6,132.3,219.7,131.8z"/>
	<polygon points="228.5,127.1 232.8,127.1 232.8,138.2 233.7,138.2 233.7,127.1 238,127.1 238,126.2 228.5,126.2 	"/>
	<polygon points="247.1,132.9 242.8,126.2 241.7,126.2 246.7,133.8 246.7,138.2 247.6,138.2 247.6,133.8 252.5,126.2 251.5,126.2 	
		"/>
	<polygon points="258.4,126.2 257.5,126.2 257.5,138.2 265.3,138.2 265.3,137.3 258.4,137.3 	"/>
	<polygon points="270.6,138.2 278.8,138.2 278.8,137.3 271.5,137.3 271.5,132.7 277.8,132.7 277.8,131.9 271.5,131.9 271.5,127.1 
		278.8,127.1 278.8,126.2 270.6,126.2 	"/>
	<polygon points="299,136.6 293.8,126.2 293,126.2 293,138.2 293.9,138.2 293.9,128.2 298.7,137.8 299.3,137.8 304.2,128.1 
		304.2,138.2 305.1,138.2 305.1,126.2 304.2,126.2 	"/>
	<path d="M315.6,126.2l-5.5,12h1l1.2-2.7h7.5l1.2,2.7h1l-5.5-12H315.6z M312.7,134.6l3.4-7.4l3.4,7.4H312.7z"/>
	<path d="M332.6,132.8h4.4v2.1c-0.9,1.5-2.6,2.6-4.5,2.6c-2.9,0-5.3-2.4-5.3-5.3c0-2.9,2.4-5.3,5.3-5.3c1.7,0,3.3,0.8,4.2,2.1
		l0.8-0.5c-1.1-1.5-3-2.5-5-2.5c-3.5,0-6.2,2.8-6.2,6.2c0,3.4,2.8,6.2,6.2,6.2c1.9,0,3.6-0.9,4.6-2.3v2.1h0.8V132h-5.2V132.8z"/>
	<path d="M347.7,126.2l-5.5,12h1l1.2-2.7h7.5l1.2,2.7h1l-5.5-12H347.7z M344.8,134.6l3.4-7.4l3.4,7.4H344.8z"/>
	<polygon points="358.2,127.1 365.1,127.1 357.9,137.5 357.9,138.2 366.3,138.2 366.3,137.3 359.1,137.3 366.3,126.9 366.3,126.2 
		358.2,126.2 	"/>
	<rect x="371.7" y="126.2" width="0.9" height="12"/>
	<polygon points="388.2,136.6 379.9,126.2 379.1,126.2 379.1,138.2 380,138.2 380,127.8 388.3,138.2 389.1,138.2 389.1,126.2 
		388.2,126.2 	"/>
	<polygon points="395.6,138.2 403.8,138.2 403.8,137.3 396.5,137.3 396.5,132.7 402.7,132.7 402.7,131.9 396.5,131.9 396.5,127.1 
		403.8,127.1 403.8,126.2 395.6,126.2 	"/>
	<path d="M68.7,126.6h-4.5v11.6h0.9v-3.6h3.6c2.7,0,4.2-1.9,4.2-4C72.9,128.5,71.4,126.6,68.7,126.6z M68.6,133.8h-3.6v-6.3h3.6
		c2.2,0,3.4,1.5,3.4,3.2C72,132.2,70.8,133.8,68.6,133.8z"/>
	<polygon points="78.2,138.2 86.2,138.2 86.2,137.3 79.1,137.3 79.1,132.9 85.1,132.9 85.1,132.1 79.1,132.1 79.1,127.5 86.2,127.5 
		86.2,126.6 78.2,126.6 	"/>
	<path d="M100.8,130.3c0-2-1.4-3.7-4-3.7h-5.1v11.6h0.9v-4.1h4.2c0.1,0,0.2,0,0.4,0l2.9,4.1h1.1l-3-4.3
		C99.8,133.4,100.8,132,100.8,130.3z M96.8,133.3h-4.2v-5.8h4.2c2,0,3.1,1.4,3.1,2.9C99.9,131.9,98.8,133.3,96.8,133.3z"/>
	<path d="M110.2,132c-1.9-0.6-3.5-1.1-3.5-2.6c0-1.2,1.1-2.2,3.2-2.2c2.2,0,3.5,1,3.5,2.2v0.1h0.9v-0.1c0-1.7-1.8-3-4.3-3
		c-2.5,0-4.1,1.2-4.1,3c0,2.1,2.2,2.8,4.1,3.4c2,0.6,3.6,1.1,3.6,2.6c0,1.2-1.2,2.2-3.3,2.2c-2.2,0-3.6-1-3.6-2.2v-0.1h-0.9v0.1
		c0,1.8,1.9,3,4.5,3c2.6,0,4.2-1.2,4.2-3C114.4,133.2,112,132.5,110.2,132z"/>
	<rect x="119.9" y="126.6" width="0.9" height="11.6"/>
	<path d="M130.9,126.6l-5.3,11.6h1l1.2-2.6h7.3l1.2,2.6h1l-5.3-11.6H130.9z M128.1,134.8l3.3-7.2l3.3,7.2H128.1z"/>
	<polygon points="150.8,136.7 142.8,126.6 142,126.6 142,138.2 142.9,138.2 142.9,128.1 150.9,138.2 151.7,138.2 151.7,126.6 
		150.8,126.6 	"/>
</g>
</svg>
